inDegrees=no
num_controls=7
num_derivatives=13
num_iterations=136
num_multipliers=7
num_parameters=0
num_slacks=7
num_states=26
objective=0.496876
objective_accelerations=0.042989
objective_balance=0.003654
objective_effort=0.039581
objective_height=0.405144
objective_ligament=0.005509
solver_duration=1585.894408
status=Solve_Succeeded
success=true
DataType=double
version=3
OpenSimVersion=4.5
endheader
time	/jointset/ground_pelvis/pelvis_tilt/value	/jointset/ground_pelvis/pelvis_tx/value	/jointset/ground_pelvis/pelvis_ty/value	/jointset/hip_r/hip_flexion_r/value	/jointset/hip_r/hip_adduction_r/value	/jointset/hip_r/hip_rotation_r/value	/jointset/back/lumbar_extension/value	/jointset/patellofemoral_r/patellar_flexion_r/value	/jointset/knee_r/knee_flexion_r/value	/jointset/knee_r/knee_adduction_r/value	/jointset/knee_r/knee_rotation_r/value	/jointset/ankle_r/ankle_angle_r/value	/jointset/subtalar_r/subtalar_angle_r/value	/jointset/ground_pelvis/pelvis_tilt/speed	/jointset/ground_pelvis/pelvis_tx/speed	/jointset/ground_pelvis/pelvis_ty/speed	/jointset/hip_r/hip_flexion_r/speed	/jointset/hip_r/hip_adduction_r/speed	/jointset/hip_r/hip_rotation_r/speed	/jointset/back/lumbar_extension/speed	/jointset/patellofemoral_r/patellar_flexion_r/speed	/jointset/knee_r/knee_flexion_r/speed	/jointset/knee_r/knee_adduction_r/speed	/jointset/knee_r/knee_rotation_r/speed	/jointset/ankle_r/ankle_angle_r/speed	/jointset/subtalar_r/subtalar_angle_r/speed	/forceset/tau_hip_flexion_r	/forceset/tau_hip_adduction_r	/forceset/tau_hip_rotation_r	/forceset/tau_knee_flexion_r	/forceset/tau_ankle_angle_r	/forceset/tau_subtalar_angle_r	/forceset/tau_lumbar_extension	lambda_cid13_p0	lambda_cid14_p0	lambda_cid14_p1	lambda_cid14_p2	lambda_cid14_p3	lambda_cid14_p4	lambda_cid14_p5	/jointset/ground_pelvis/pelvis_tilt/accel	/jointset/ground_pelvis/pelvis_tx/accel	/jointset/ground_pelvis/pelvis_ty/accel	/jointset/hip_r/hip_flexion_r/accel	/jointset/hip_r/hip_adduction_r/accel	/jointset/hip_r/hip_rotation_r/accel	/jointset/back/lumbar_extension/accel	/jointset/patellofemoral_r/patellar_flexion_r/accel	/jointset/knee_r/knee_flexion_r/accel	/jointset/knee_r/knee_adduction_r/accel	/jointset/knee_r/knee_rotation_r/accel	/jointset/ankle_r/ankle_angle_r/accel	/jointset/subtalar_r/subtalar_angle_r/accel	gamma_cid13_p0	gamma_cid14_p0	gamma_cid14_p1	gamma_cid14_p2	gamma_cid14_p3	gamma_cid14_p4	gamma_cid14_p5
0.5	-0.1418241374756943	0.03117928264139256	0.841278667257591	0.8191249336070395	-0.2239700760893239	-0.1307297782146163	-0.3246417161488526	0.7698215561529466	0.7698215561530619	0.009237799300622136	0.174524907601056	0.2695344691506105	0.06665845888115531	-0.3760230549208067	-0.1331580692635132	-0.4215240164964541	1.751040885099733	0.003857896213893161	0.2185860110089253	-0.5954034360040712	1.887756602222521	1.88775660222249	-0.3776489680740667	-3.30904326755012e-05	0.6146292886952036	0.1891689298782439	-0.1033994619482573	-0.0197876338359327	0.01171243566019606	-0.3517841092712933	0.07607355424040627	-0.00787450592534788	0.1535211127377354	-27.17734927529857	-17.25823257434309	-3.19302430381284	-2.741733303511186	2.211076228143185	-662.9797913062919	60.76975991681469	0.2060808851329918	0.3765594690897611	-0.4555397915405667	-1.024153395751852	-0.1503157785510066	-0.601983067336012	1.440894395555492	-1.250281388001597	-1.250281388001617	0.4741103708345837	-0.08045074037938676	-0.6010387372010275	-0.1988169545736066	-5.03168993400787e-08	3.302995423286603e-07	2.877950820968276e-06	2.849082719820612e-06	-5.552191996560412e-07	3.201540551096037e-07	7.581137427579083e-07
0.51	-0.1455735547943392	0.02986667819173076	0.8370415610658269	0.8365819139860512	-0.2239385801237879	-0.1285797791403651	-0.3305229688063502	0.7886339592738805	0.7886339592739261	0.005480781102182907	0.1745245015236735	0.2756499954605647	0.06854061228908682	-0.3738048472581963	-0.1293477018416082	-0.4258034792661679	1.740120921774515	0.002434486659047503	0.2114238804358849	-0.5807799602888384	1.874469193340764	1.874469193340754	-0.3737256915427402	-5.242528484332455e-05	0.6083929682574489	0.1872196807927924	-0.1094163364548327	-0.01798839298350484	0.01209900154207268	-0.3553225126274736	0.07268750244025365	-0.007108757590946447	0.1589442047749391	-26.01324367376987	-18.52768259398935	-3.212256770471042	-2.590719491288933	2.667357027934282	-666.9950325929721	60.75665380704344	0.2380459231679699	0.3854326614913746	-0.400025720866519	-1.161024888541094	-0.1386952382600571	-0.771685914116367	1.483144440503046	-1.406185222740118	-1.406185222736753	0.3562978251367234	0.03724789428911285	-0.647474162307085	-0.1985069271938095	-4.756040720977676e-08	3.24793495337157e-07	2.841002116111309e-06	2.756039908845497e-06	-5.477168868467859e-07	3.027307046181173e-07	8.492043792263341e-07
0.52	-0.1492991189930893	0.02859260887283813	0.8327644850061299	0.8539226733142846	-0.2239213865926622	-0.1265010729442097	-0.3362559726504962	0.8073058453891021	0.8073058453890768	0.001763967975228201	0.1745238866481533	0.2817006494730924	0.07040216759783126	-0.3712524309418699	-0.1254510431096799	-0.4295179900830741	1.727796674943922	0.0009974093318531269	0.2043274353897127	-0.5657536733337709	1.859653201079916	1.859653201079929	-0.3696079537772118	-7.485006002769029e-05	0.6016548292099181	0.1850493100408259	-0.1154332109614045	-0.01618915213107558	0.01248556742394107	-0.3588609159836537	0.06930145064010119	-0.006343009256542965	0.1643672968121461	-24.83875520462136	-19.8050816959936	-3.235489345836601	-2.436085454841034	3.146007123186701	-671.1275671543989	60.7071492605051	0.272922615876224	0.3938177310944285	-0.3425494009790372	-1.305010096827033	-0.1530493330207533	-0.5888459619623534	1.521456643522437	-1.555998063819511	-1.555998063819512	0.5130026176749833	-0.08106872498268977	-0.701402459156277	-0.2430412878765819	-4.557041321606603e-08	3.170965790396294e-07	2.796600598747269e-06	2.648010776609306e-06	-5.3763529581725e-07	2.838990062229864e-07	9.33299435392176e-07
0.53	-0.1529976070192701	0.02735790565253622	0.8284531346590672	0.8711332988995752	-0.2239186261206641	-0.1244931871933435	-0.3418368057374179	0.8258219437180103	0.8258219437179405	-0.001910959920760547	0.1745230738176344	0.2876814491657416	0.07224091975318925	-0.3684000371119707	-0.1214776101253228	-0.4326529029784388	1.714104541533173	-0.0004395748269549825	0.1972109486003059	-0.5503580786157964	1.843311706497674	1.843311706497781	-0.3654019568346154	-6.840894480121411e-05	0.5944281378365678	0.1826765566309514	-0.1211477713422816	-0.01451146487498871	0.01268578524732891	-0.3627670685488437	0.06644714692708414	-0.00553215807957186	0.1695556845892353	-23.6562832020972	-20.91352352179847	-3.205748664711731	-2.294242564535054	3.500298124579698	-675.3440997845669	60.78369630467054	0.298189354846966	0.4007982379470307	-0.2840309796369418	-1.434867761046442	-0.1375402714508334	-0.7787590545031244	1.55684070115451	-1.71142998102453	-1.711429981010313	0.3712222208248853	0.04493429059498554	-0.7449369891076315	-0.2373345738543982	-5.567993154152115e-08	2.441806257047382e-07	2.465693846854865e-06	2.004972637067372e-06	-4.513843004302498e-07	2.054987635609013e-07	9.54497189167389e-07
0.54	-0.1566662127894917	0.02616327519324604	0.8241134214338866	0.8882002925911895	-0.2239299389530823	-0.1225576081137857	-0.3472620369141158	0.8441669861359771	0.8441669861358623	-0.005544463049668325	0.1745230121504299	0.2935876550421207	0.07405535593318617	-0.3652759797500639	-0.1174364909073357	-0.4351905657066779	1.699070296208521	-0.001817251551363239	0.1898661011279681	-0.5346332912890398	1.825442018891514	1.825442018891717	-0.3613230003611027	7.538260321164573e-05	0.5867360659558886	0.180186114968617	-0.1268623317231549	-0.01283377761889967	0.01288600307070862	-0.3666732211140335	0.06359284321406747	-0.004721306902597469	0.1747440723663278	-22.46868436059335	-22.03031487306125	-3.17868962372591	-2.150576011917599	3.874672984020087	-679.6873256037468	60.83319057325686	0.3272553222777624	0.4073549778204423	-0.2230993675538782	-1.573432479607504	-0.1411878461407849	-0.6345180985485818	1.58729516527892	-1.861636668602944	-1.861636668602914	0.4875945238582515	-0.05359863842541084	-0.7944785606220311	-0.2665789383685492	-7.917614434775568e-08	9.910743990297605e-08	1.817802580165118e-06	7.700096383786492e-07	-2.8086077256265e-07	6.119289745452556e-08	9.0610643816999e-07
0.55	-0.1603021080451549	0.02500937027854579	0.8197513504807056	0.9051100887422765	-0.2239554710443989	-0.1206925294609998	-0.3525284845623058	0.8623259284991553	0.8623259284989782	-0.00913377187951773	0.1745230448796984	0.2994144897847271	0.07584313954954527	-0.3618544585477849	-0.1133362712876765	-0.4371215737551465	1.682669301918227	-0.003279822209091457	0.1831167130945026	-0.5186040071921384	1.806108660961581	1.806108660961603	-0.356559958218674	-4.548174041330773e-05	0.5785636501388314	0.177350776375581	-0.1326485185430346	-0.01105089667115746	0.01296320391516007	-0.3702941884918614	0.06046295765204948	-0.003925747203500189	0.179963270944751	-21.27916686112868	-23.2356656390135	-3.175547857305078	-2.001076299915378	4.316813696350205	-684.0034773251093	60.80935183746556	0.3568912407323034	0.4125509962210271	-0.1627973512139658	-1.706377079084366	-0.1472713113027026	-0.7001879833972275	1.618579705425177	-2.004835874153498	-2.004835874180569	0.4676849136548561	0.01222198997603496	-0.8387505896790778	-0.2947443829669304	-8.962313023951793e-08	1.395379886048477e-08	1.399908315007532e-06	4.47501358243792e-08	-1.758206853330038e-07	-2.523754657986143e-08	8.585066948927442e-07
0.5600000000000001	-0.1639023299444891	0.02389670666847863	0.8153730302814959	0.9218492861153925	-0.2239953247694357	-0.1188959524540785	-0.3576330724348209	0.8802844071792426	0.8802844071789983	-0.01267604511709732	0.1745225794299885	0.3051575748696767	0.07760202316733485	-0.3581413084843335	-0.1091882299807199	-0.4384404149124445	1.664950540614171	-0.004681578295374801	0.1761657719549701	-0.5022613361540603	1.785349282273048	1.78534928227289	-0.3519158819074581	-2.425319175564987e-05	0.5699861344245142	0.1744061152547133	-0.1384347053629104	-0.009268015723412539	0.01304040475958878	-0.3739151558696897	0.057333072090032	-0.003130187504398676	0.1851824695231776	-20.09163581787123	-24.44830215238582	-3.171478134492904	-1.854241043356351	4.763056034730878	-688.4343061315136	60.82168775125476	0.3855810945122247	0.4169193152799452	-0.1006659893197206	-1.836985882359941	-0.1290249318518115	-0.6748287197619803	1.64997255351425	-2.146840820322767	-2.146840820322816	0.4638013576157292	-0.02518005996889217	-0.8754985400739794	-0.2884434439348697	-8.441104383391398e-08	7.036115291162094e-10	1.258010451688528e-06	-6.886517136856706e-08	-1.493607268688994e-07	-4.221748412786424e-08	8.118561608796817e-07
0.5700000000000001	-0.1674639870821755	0.02282570132419651	0.810984627555915	0.9384047294663285	-0.2240489827792628	-0.1171689159236802	-0.3625728857349858	0.8980281654681013	0.8980281654679558	-0.01617164522212007	0.1745224566889248	0.3108128016493429	0.07933072546671888	-0.3541475206676498	-0.1050105155804634	-0.4391345026954623	1.645925288732753	-0.00604533716673341	0.169254289418197	-0.4856654519354305	1.76316613111685	1.763166131116818	-0.3471799285331818	8.465444085275275e-07	0.5609883555763424	0.1713041365404785	-0.144004259795482	-0.007581693514725791	0.01308673761915073	-0.3776645188813768	0.05435418665440361	-0.002416890071443333	0.1901971034357836	-18.91273768875865	-25.61979042636768	-3.202335437476035	-1.694521657014069	5.239109129942713	-692.8604701019126	60.79473963171231	0.4126649977169078	0.4185191180016887	-0.03794641100819356	-1.967222786287126	-0.1392921862820627	-0.6975019339936867	1.669777147566114	-2.289472628011415	-2.289472627992381	0.4822803366344853	0.01652930077026737	-0.9225811788179936	-0.3254368159427867	-8.011867387064295e-08	-1.209182868168398e-08	1.115315602510754e-06	-1.80719582230225e-07	-1.242677472897505e-07	-5.384645399725408e-08	7.553943223959154e-07
0.58	-0.1709844288672006	0.02179653744703761	0.8065924507048609	0.9547635347094001	-0.2241161265421044	-0.1155106330013215	-0.3673456640346585	0.9155430081724498	0.9155430081724033	-0.0196191281915396	0.1745226198072919	0.3163759179162017	0.08102753563280551	-0.3498982379521482	-0.1008199365560774	-0.4391952400071001	1.625622919041159	-0.007378728898258588	0.162415050347076	-0.4688543360556514	1.739566165370929	1.739566165371025	-0.342292454786869	3.291869502009672e-05	0.5515640318630023	0.1680276885952439	-0.1495738142280504	-0.005895371306039412	0.01313307047870895	-0.3814138818930638	0.0513753012187748	-0.001703592638488488	0.1952117373483928	-17.7457998820159	-26.79698031115272	-3.231595767158304	-1.538020748624479	5.712622940928743	-697.3777325208885	60.80570207442393	0.4366800742757756	0.4194922401058273	0.0260041049562932	-2.092409444395107	-0.1229515038851222	-0.6603800266315536	1.693018885744081	-2.430203738267235	-2.430203738267215	0.494105432023056	-0.02378557707942386	-0.9608075131076224	-0.3233372901348409	-7.702407415785201e-08	-2.429504008430198e-08	9.715828182610952e-07	-2.902807327534597e-07	-1.009550192817064e-07	-5.850672177356676e-08	6.861549711130938e-07
0.59	-0.1744611500884791	0.02080932956655921	0.8022028402511797	0.9709130358623376	-0.2241964427643256	-0.1139199061871271	-0.3719493292742836	0.9328149421230162	0.9328149421230301	-0.02301667143517104	0.1745228517075298	0.3218427736981013	0.08269072257155674	-0.34540544831783	-0.09662041297299261	-0.4386200326425096	1.604069417406991	-0.008676147500981094	0.155735784593209	-0.4518526923267232	1.714597604302359	1.714597604302364	-0.3372017001461747	1.922460092206741e-05	0.5417482635650758	0.1645871955382669	-0.154903606525222	-0.004395717980218589	0.01316074618888385	-0.385332738297775	0.04875316452450336	-0.001047823535461088	0.2000156672358297	-16.59304896949894	-27.8575302772605	-3.268553758711337	-1.37671108952564	6.104537553447781	-701.8094318282847	60.82905321668548	0.4616575577462494	0.4203489430002589	0.08928951781178361	-2.218009354782523	-0.1318829004487054	-0.6709909762874318	1.707640047872814	-2.563620314960172	-2.563620314973694	0.5188467269300338	0.01065902168807211	-1.000815494573389	-0.3576832631636771	-7.420501862998156e-08	-3.533698591419291e-08	8.383305797852881e-07	-3.877618790322204e-07	-7.961444233351616e-08	-6.167351015047818e-08	6.169915812598149e-07
